<?xml version="1.0" encoding="UTF-8"?>
<svg xmlns="http://www.w3.org/2000/svg" version="1.1" viewBox="0 0 621.58 150">
  <!-- Generator: Adobe Illustrator 30.3.0, SVG Export Plug-In . SVG Version: 2.1.3 Build 182)  -->
  <defs>
    <style>
      .st0 {
        fill: #231815;
      }
    </style>
  </defs>
  <g id="_x32__x2F_familiar">
    <g>
      <path class="st0" d="M333.95,115.29c0,.78.23,1.48,1.16,1.48,4.04,0,8.38-7.22,10.09-10.4.08-.08.15-.16.31-.16.08,0,.15.08.15.31,0,1.01-3.26,5.98-5.67,8.38-1.79,1.79-4.42,3.57-6.91,3.57-2.72,0-3.26-1.4-3.26-4.04l-.08-8.23c0-1.17-.7-1.79-1.71-1.79-1.63,0-5.9,4.27-6.21,4.89v8.62c-1.71.54-3.42,1.01-5.04,1.47v-.78c.78-.15,1.01-1.24,1.01-5.2v-10.32l4.97-1.63v.7c-.78.31-.93.62-.93,1.86v4.11c2.25-2.25,5.04-5.59,8.54-5.59,1.63,0,3.49,1.01,3.49,3.57l.08,9.16Z"/>
      <path class="st0" d="M359.02,113.89c0,2.72.62,3.1,1.79,3.1,3.18,0,8.61-7.76,9.7-10.32.15-.31.31-.54.47-.54.08,0,.23.08.23.23,0,.31-.54,1.24-1.47,2.95-1.94,3.41-6.21,9.24-10.87,9.24-2.72,0-3.49-.78-3.96-3.96-1.32,2.02-4.04,3.96-6.52,3.96-4.11,0-6.05-2.56-6.05-6.52,0-4.81,3.73-9.47,8.69-9.47,1.71,0,3.41.54,4.81,1.55,1.4-.31,3.18-1.71,4.27-1.71.08,0,.31,0,.31.31,0,.39-1.4,1.01-1.4,4.11v7.06ZM354.99,107.76c0-3.1-1.55-4.42-3.73-4.42-3.18,0-5.2,3.03-5.2,6.36,0,3.8,1.4,6.6,4.42,6.6,2.72,0,3.88-2.25,4.5-3.03v-5.51Z"/>
      <path class="st0" d="M375.16,96.28l2.72-1.09c1.09-.47,1.79-.7,2.17-.7.16,0,.31.08.31.31s-.31.39-2.02,1.09l-3.18,1.32v16.92c0,2.02.39,2.87,2.48,2.87,4.11,0,8.61-6.52,10.25-9.78.23-.47.47-.85.7-.85.16,0,.23.15.23.46,0,.16-.62,1.79-4.35,6.67-1.94,2.49-5.36,5.05-9.39,5.05-3.41,0-3.96-1.09-3.96-6.37v-13.12l-2.41.86c-.39.15-1.4.62-1.71.62s-.39-.08-.39-.23c0-.47,1.24-.93,2.41-1.4l2.09-.85,4.04-1.79Z"/>
      <path class="st0" d="M404.42,101.4v.54c-1.24.47-1.63,1.4-1.63,3.42v8.69c0,2.25.31,2.79,1.94,2.79,2.87,0,8.15-7.76,9.16-10.01.16-.31.23-.62.39-.62s.39.08.39.31-.23.7-.7,1.55c-2.1,4.11-6.75,10.48-12.03,10.48-2.41,0-3.26-1.16-3.26-5.12l-.16-.16c-1.63,2.1-4.58,5.28-7.53,5.28-3.1,0-4.27-1.4-4.27-4.04v-11.33c1.78-.78,3.73-1.09,5.51-1.63v.54c-1.16.85-1.47.85-1.47,2.33v9.47c0,2.41.62,2.95,2.02,2.95,2.1,0,3.73-2.33,5.98-5.05v-8.61l5.67-1.79Z"/>
      <path class="st0" d="M416.22,100.62c-.16.23-.16.54-.16.93v.85c.23.39,2.72,1.24,4.58,1.24s3.65-.31,5.28-1.09v.47c0,.54-3.18,1.47-3.18,8.23,0,2.95.93,5.12,3.73,5.12,3.18,0,7.22-6.91,8.61-9.24.31-.46.47-.85.62-.85.08,0,.23.08.23.31,0,.39-.08.7-1.4,2.79-2.17,3.57-5.98,9.16-10.63,9.16-3.34,0-5.04-1.94-5.04-5.28,0-2.4,3.65-7.61,5.51-9.16l-.16-.16c-2.87,1.79-6.29,2.41-9.78,2.48-1.09,2.49-2.48,4.97-4.27,6.98-1.32,1.48-2.25,2.41-2.95,2.41-.16,0-.16-.08-.16-.15,0-.16.08-.31.31-.47,2.56-1.71,4.81-5.35,6.13-8.23.78-1.71,1.63-4.58,1.94-6.36h.78Z"/>
      <path class="st0" d="M449.52,113.89c0,2.72.62,3.1,1.78,3.1,3.18,0,8.62-7.76,9.7-10.32.15-.31.31-.54.47-.54.08,0,.23.08.23.23,0,.31-.54,1.24-1.47,2.95-1.94,3.41-6.21,9.24-10.87,9.24-2.72,0-3.49-.78-3.96-3.96-1.32,2.02-4.04,3.96-6.52,3.96-4.11,0-6.05-2.56-6.05-6.52,0-4.81,3.73-9.47,8.69-9.47,1.71,0,3.41.54,4.81,1.55,1.4-.31,3.18-1.71,4.27-1.71.08,0,.31,0,.31.31,0,.39-1.4,1.01-1.4,4.11v7.06ZM445.48,107.76c0-3.1-1.55-4.42-3.73-4.42-3.18,0-5.2,3.03-5.2,6.36,0,3.8,1.4,6.6,4.42,6.6,2.72,0,3.88-2.25,4.5-3.03v-5.51Z"/>
      <path class="st0" d="M461.54,101.63c0-6.91.15-9.78,1.24-15.06.77-3.88,4.73-10.32,9.31-10.32,2.95,0,4.35,2.33,4.35,5.05,0,4.35-4.89,13.12-10.87,22.35v8.93c0,3.8.54,4.27,2.02,4.27,3.18,0,5.59-2.72,6.6-3.88,1.24-1.4,2.1-2.79,3.03-4.19.93-1.32,1.47-2.4,1.79-2.4.08,0,.23,0,.23.31,0,.62-1.32,3.26-4.42,6.98-1.94,2.25-5.43,4.89-9.47,4.89-2.87,0-3.8-1.55-3.8-4.35v-12.57ZM465.58,102.17h.15c3.49-6.05,7.61-12.73,7.61-20.1,0-3.41-.85-4.58-2.56-4.58-3.1,0-5.2,4.19-5.2,20.49v4.19Z"/>
      <path class="st0" d="M522.86,116.69c5.28,0,8.46-4.11,10.79-8.54.78-1.47.85-1.78,1.16-1.78.16,0,.31.08.31.23,0,.39-.16.85-1.32,2.87-2.87,5.12-6.75,9.08-12.88,9.08-3.88,0-9-1.63-12.11-3.8-4.11,2.02-8.3,3.8-12.96,3.8-2.41,0-7.68-.85-7.68-4.11,0-4.27,5.51-5.51,8.85-5.51,4.66,0,9.08,1.55,13.5,2.79,6.29-5.28,10.4-17.7,10.4-25.77s-2.41-16.14-11.64-16.14c-8.61,0-13.97,7.37-13.97,15.52,0,4.42,2.25,10.01,7.29,10.01,4.42,0,7.14-2.95,7.14-7.3,0-2.79-1.63-5.59-3.96-5.59-1.09,0-1.32.39-1.4.39-.16,0-.16-.16-.16-.31,0-.85,2.25-1.94,3.65-1.94,3.18,0,4.81,2.09,4.81,5.12,0,5.67-5.43,10.4-10.86,10.4-6.05,0-10.71-3.73-10.71-10.01,0-9.55,9.16-17.07,18.32-17.07,10.24,0,17.07,6.44,17.07,16.84s-6.6,20.49-14.59,26.39c3.03,1.4,7.68,4.42,10.94,4.42ZM497.71,117.31c3.57,0,6.83-1.32,9.94-2.95-3.88-2.17-7.92-4.19-12.42-4.19-1.63,0-5.04.54-5.04,2.95,0,3.26,5.04,4.19,7.53,4.19Z"/>
      <path class="st0" d="M550.95,101.4v.54c-1.24.47-1.63,1.4-1.63,3.42v8.69c0,2.25.31,2.79,1.94,2.79,2.87,0,8.15-7.76,9.16-10.01.16-.31.23-.62.39-.62s.39.08.39.31-.23.7-.7,1.55c-2.1,4.11-6.75,10.48-12.03,10.48-2.41,0-3.26-1.16-3.26-5.12l-.16-.16c-1.63,2.1-4.58,5.28-7.53,5.28-3.1,0-4.27-1.4-4.27-4.04v-11.33c1.78-.78,3.73-1.09,5.51-1.63v.54c-1.16.85-1.48.85-1.48,2.33v9.47c0,2.41.62,2.95,2.02,2.95,2.1,0,3.72-2.33,5.98-5.05v-8.61l5.67-1.79Z"/>
      <path class="st0" d="M571.67,106.13c0,3.8-4.97,6.75-8.07,8.07,1.01,1.71,3.18,2.79,5.2,2.79,5.43,0,8.3-2.49,11.1-6.83.7-.93,1.63-2.41,2.02-3.18.23-.47.31-.62.46-.62s.16.23.16.46c0,.39-2.17,4.42-4.11,6.67-2.72,3.18-6.6,5.05-10.79,5.05-4.58,0-9.24-2.41-9.24-7.37,0-4.5,4.27-8.61,8.77-8.61,2.25,0,4.5,1.01,4.5,3.57ZM568.72,106.6c0-1.71-.93-2.79-2.72-2.79-3.03,0-3.88,2.72-3.88,5.2,0,1.63.31,3.1,1.09,4.58,2.72-1.32,5.51-3.72,5.51-6.98Z"/>
      <path class="st0" d="M585.64,98.76l-.93,2.87c2.87,1.94,7.22,5.59,7.22,9.47,0,2.72-2.1,5.67-4.58,6.52v.16c7.06-.16,12.11-2.41,15.6-10.25.23-.54.47-.93.7-.93.16,0,.23.08.23.31,0,.93-3.03,6.6-6.44,8.85-3.88,2.56-7.61,2.64-10.01,2.64-1.24,0-2.48.16-3.72.16-2.02,0-4.11-1.01-5.67-2.33.16-1.63,1.32-3.1,2.72-3.96l.31.23c.39,2.79,1.48,4.81,4.58,4.81,2.25,0,4.11-1.63,4.11-3.88,0-2.79-4.42-6.52-6.6-7.99-1.16,2.33-2.49,4.58-4.11,6.67-1.86,2.41-3.49,3.73-3.8,3.73-.16,0-.16-.15-.16-.23,0-.31,1.24-1.32,1.79-1.86,3.8-3.8,6.52-10.09,8.23-15.13l.54.15Z"/>
      <path class="st0" d="M607.92,96.28l2.72-1.09c1.09-.47,1.79-.7,2.17-.7.15,0,.31.08.31.31s-.31.39-2.02,1.09l-3.18,1.32v16.92c0,2.02.39,2.87,2.48,2.87,4.11,0,8.61-6.52,10.24-9.78.23-.47.47-.85.7-.85.16,0,.23.15.23.46,0,.16-.62,1.79-4.35,6.67-1.94,2.49-5.36,5.05-9.39,5.05-3.42,0-3.96-1.09-3.96-6.37v-13.12l-2.41.86c-.39.15-1.4.62-1.71.62s-.39-.08-.39-.23c0-.47,1.24-.93,2.41-1.4l2.1-.85,4.04-1.79Z"/>
    </g>
  </g>
  <g id="_x33__x2F_solid">
    <path class="st0" d="M0,116.74h12.55V51.36H0v-2.28h26.25v17.45h.33c2.61-5.71,9.29-19.24,28.04-19.24,14.35,0,24.29,6.68,24.29,21.85v47.61h12.55v2.28h-39.13v-2.28h12.55v-52.66c0-8.48-3.91-14.51-12.39-14.51-14.02,0-25.92,13.04-25.92,30.33v36.85h12.55v2.28H0v-2.28Z"/>
    <path class="st0" d="M110.2,47.28c4.73,0,8.64,3.91,8.64,8.64s-3.91,8.64-8.64,8.64-8.64-3.91-8.64-8.64,3.91-8.64,8.64-8.64ZM110.2,103.53c4.73,0,8.64,3.91,8.64,8.64s-3.91,8.64-8.64,8.64-8.64-3.91-8.64-8.64,3.91-8.64,8.64-8.64Z"/>
    <path class="st0" d="M220.38,138.75c-4.4-5.05-9.95-9.46-16.3-10.11-11.58-1.14-16.47-3.75-22.83-7.17l.16-.49c2.12.33,4.08.49,6.2.49,31.79,0,56.74-30.16,56.74-60.65,0-34.73-28.04-60.81-56.74-60.81s-56.74,27.06-56.74,60.81c0,26.58,16.95,51.68,41.74,58.37,4.56,1.3,10.43,5.54,15.16,11.74,10.92,14.67,14.19,18.42,52.01,19.08v-2.28c-11.41,0-13.53-2.28-19.4-8.97ZM149.62,60.81c0-30,6.2-58.53,37.99-58.53s37.99,28.53,37.99,58.53c0,39.13-9.95,58.37-37.99,58.37s-37.99-19.24-37.99-58.37ZM219.62,144.42c-.88-.3-1.79-.52-2.7-.75-2.83-.72-6.09-1.12-8.76-2.3-3.63-1.61-6.94-3.87-10.16-6.15-2.49-1.76-4.53-4-6.82-6,1.15,1,2.8,1.71,4.1,2.5,1.32.8,2.65,1.6,3.97,2.4,3.69,2.22,7.41,4.41,11.31,6.25,3.71,1.75,7.55,3.27,11.28,4.98-.73-.33-1.46-.66-2.22-.92Z"/>
  </g>
</svg>