<?xml version="1.0" encoding="UTF-8"?>
<svg xmlns="http://www.w3.org/2000/svg" version="1.1" viewBox="0 0 252.6 226.14">
  <!-- Generator: Adobe Illustrator 30.3.0, SVG Export Plug-In . SVG Version: 2.1.3 Build 182)  -->
  <defs>
    <style>
      .st0 {
        fill: #231815;
      }
    </style>
  </defs>
  <g id="_x32__x2F_familiar">
    <g>
      <path class="st0" d="M14.22,201.73c0,.64.19,1.22.97,1.22,3.34,0,6.95-5.98,8.36-8.62.06-.07.13-.13.26-.13.06,0,.13.06.13.26,0,.84-2.7,4.95-4.7,6.95-1.48,1.48-3.67,2.96-5.73,2.96-2.25,0-2.7-1.16-2.7-3.35l-.06-6.82c0-.97-.58-1.48-1.41-1.48-1.35,0-4.89,3.54-5.15,4.05v7.14c-1.42.45-2.83.84-4.18,1.22v-.64c.64-.13.84-1.03.84-4.31v-8.55l4.12-1.35v.58c-.64.26-.77.52-.77,1.54v3.41c1.87-1.87,4.18-4.63,7.08-4.63,1.35,0,2.89.84,2.89,2.96l.06,7.59Z"/>
      <path class="st0" d="M34.99,200.58c0,2.25.51,2.57,1.48,2.57,2.64,0,7.14-6.43,8.04-8.56.13-.26.26-.45.39-.45.06,0,.19.07.19.19,0,.26-.45,1.03-1.22,2.44-1.61,2.83-5.15,7.66-9.01,7.66-2.25,0-2.89-.64-3.28-3.28-1.09,1.67-3.35,3.28-5.4,3.28-3.41,0-5.02-2.12-5.02-5.4,0-3.99,3.09-7.85,7.2-7.85,1.42,0,2.83.45,3.99,1.29,1.16-.26,2.64-1.42,3.54-1.42.06,0,.26,0,.26.26,0,.32-1.16.84-1.16,3.41v5.85ZM31.65,195.49c0-2.57-1.29-3.67-3.09-3.67-2.64,0-4.31,2.51-4.31,5.28,0,3.15,1.16,5.47,3.67,5.47,2.25,0,3.22-1.87,3.73-2.51v-4.57Z"/>
      <path class="st0" d="M48.37,185.97l2.25-.9c.9-.39,1.48-.58,1.8-.58.13,0,.26.06.26.26s-.26.32-1.67.9l-2.64,1.09v14.02c0,1.67.32,2.38,2.06,2.38,3.41,0,7.14-5.4,8.49-8.1.19-.39.39-.71.58-.71.13,0,.19.13.19.38,0,.13-.51,1.48-3.6,5.53-1.61,2.06-4.44,4.18-7.78,4.18-2.83,0-3.28-.9-3.28-5.28v-10.87l-1.99.71c-.32.13-1.16.51-1.41.51s-.32-.06-.32-.19c0-.39,1.03-.77,1.99-1.16l1.74-.71,3.34-1.48Z"/>
      <path class="st0" d="M72.62,190.22v.45c-1.03.39-1.35,1.16-1.35,2.83v7.21c0,1.87.26,2.32,1.61,2.32,2.38,0,6.75-6.43,7.59-8.3.13-.26.19-.51.32-.51s.32.06.32.26-.19.58-.58,1.29c-1.74,3.41-5.6,8.68-9.97,8.68-1.99,0-2.7-.96-2.7-4.25l-.13-.13c-1.35,1.74-3.79,4.37-6.24,4.37-2.57,0-3.54-1.16-3.54-3.35v-9.39c1.48-.64,3.09-.9,4.57-1.35v.45c-.96.71-1.22.71-1.22,1.93v7.85c0,1.99.51,2.44,1.67,2.44,1.74,0,3.09-1.93,4.95-4.18v-7.14l4.7-1.48Z"/>
      <path class="st0" d="M82.4,189.58c-.13.19-.13.45-.13.77v.71c.19.32,2.25,1.03,3.79,1.03s3.02-.26,4.37-.9v.39c0,.45-2.64,1.22-2.64,6.82,0,2.44.77,4.25,3.09,4.25,2.64,0,5.98-5.72,7.14-7.66.26-.38.39-.71.51-.71.06,0,.19.07.19.26,0,.32-.06.58-1.16,2.32-1.8,2.96-4.95,7.59-8.81,7.59-2.77,0-4.18-1.61-4.18-4.37,0-1.99,3.02-6.3,4.57-7.59l-.13-.13c-2.38,1.48-5.21,2-8.1,2.06-.9,2.06-2.06,4.12-3.54,5.79-1.09,1.22-1.87,1.99-2.44,1.99-.13,0-.13-.06-.13-.13,0-.13.06-.26.26-.39,2.12-1.41,3.99-4.44,5.08-6.82.64-1.41,1.35-3.79,1.61-5.27h.64Z"/>
      <path class="st0" d="M109.99,200.58c0,2.25.51,2.57,1.48,2.57,2.64,0,7.14-6.43,8.04-8.56.13-.26.26-.45.39-.45.06,0,.19.07.19.19,0,.26-.45,1.03-1.22,2.44-1.61,2.83-5.15,7.66-9.01,7.66-2.25,0-2.89-.64-3.28-3.28-1.09,1.67-3.34,3.28-5.4,3.28-3.41,0-5.02-2.12-5.02-5.4,0-3.99,3.09-7.85,7.2-7.85,1.41,0,2.83.45,3.99,1.29,1.16-.26,2.64-1.42,3.54-1.42.06,0,.26,0,.26.26,0,.32-1.16.84-1.16,3.41v5.85ZM106.65,195.49c0-2.57-1.29-3.67-3.09-3.67-2.64,0-4.31,2.51-4.31,5.28,0,3.15,1.16,5.47,3.67,5.47,2.25,0,3.22-1.87,3.73-2.51v-4.57Z"/>
      <path class="st0" d="M119.96,190.41c0-5.72.13-8.1,1.03-12.48.64-3.22,3.92-8.56,7.72-8.56,2.44,0,3.6,1.93,3.6,4.18,0,3.6-4.05,10.87-9.01,18.53v7.4c0,3.15.45,3.54,1.67,3.54,2.64,0,4.63-2.25,5.47-3.22,1.03-1.16,1.74-2.32,2.51-3.47.77-1.09,1.22-1.99,1.48-1.99.06,0,.19,0,.19.26,0,.51-1.09,2.7-3.67,5.79-1.61,1.87-4.5,4.05-7.85,4.05-2.38,0-3.15-1.29-3.15-3.6v-10.42ZM123.31,190.86h.13c2.9-5.02,6.3-10.55,6.3-16.66,0-2.83-.71-3.79-2.12-3.79-2.57,0-4.31,3.47-4.31,16.98v3.47Z"/>
      <path class="st0" d="M170.78,202.89c4.37,0,7.01-3.41,8.94-7.08.64-1.22.71-1.48.96-1.48.13,0,.26.06.26.19,0,.32-.13.71-1.09,2.38-2.38,4.25-5.6,7.53-10.68,7.53-3.22,0-7.46-1.35-10.04-3.15-3.41,1.67-6.88,3.15-10.74,3.15-1.99,0-6.37-.71-6.37-3.41,0-3.54,4.57-4.57,7.33-4.57,3.86,0,7.53,1.29,11.19,2.32,5.21-4.37,8.62-14.67,8.62-21.36s-1.99-13.38-9.65-13.38c-7.14,0-11.58,6.11-11.58,12.87,0,3.67,1.87,8.3,6.05,8.3,3.67,0,5.92-2.44,5.92-6.05,0-2.32-1.35-4.63-3.28-4.63-.9,0-1.09.32-1.16.32-.13,0-.13-.13-.13-.26,0-.71,1.86-1.61,3.02-1.61,2.64,0,3.99,1.74,3.99,4.25,0,4.7-4.5,8.62-9,8.62-5.02,0-8.88-3.09-8.88-8.3,0-7.91,7.59-14.15,15.18-14.15,8.49,0,14.15,5.34,14.15,13.96s-5.47,16.98-12.09,21.87c2.51,1.16,6.37,3.67,9.07,3.67ZM149.94,203.4c2.96,0,5.66-1.09,8.23-2.44-3.22-1.8-6.56-3.47-10.29-3.47-1.35,0-4.18.45-4.18,2.44,0,2.7,4.18,3.47,6.24,3.47Z"/>
      <path class="st0" d="M194.06,190.22v.45c-1.03.39-1.35,1.16-1.35,2.83v7.21c0,1.87.26,2.32,1.61,2.32,2.38,0,6.75-6.43,7.59-8.3.13-.26.19-.51.32-.51s.32.06.32.26-.19.58-.58,1.29c-1.74,3.41-5.6,8.68-9.97,8.68-2,0-2.7-.96-2.7-4.25l-.13-.13c-1.35,1.74-3.79,4.37-6.24,4.37-2.57,0-3.54-1.16-3.54-3.35v-9.39c1.48-.64,3.09-.9,4.57-1.35v.45c-.96.71-1.22.71-1.22,1.93v7.85c0,1.99.51,2.44,1.67,2.44,1.74,0,3.09-1.93,4.95-4.18v-7.14l4.7-1.48Z"/>
      <path class="st0" d="M211.24,194.14c0,3.15-4.12,5.6-6.69,6.69.84,1.42,2.64,2.32,4.31,2.32,4.5,0,6.88-2.06,9.2-5.66.58-.77,1.35-1.99,1.67-2.64.19-.39.26-.51.38-.51s.13.19.13.38c0,.32-1.8,3.67-3.41,5.53-2.25,2.64-5.47,4.18-8.94,4.18-3.79,0-7.66-2-7.66-6.11,0-3.73,3.54-7.14,7.27-7.14,1.87,0,3.73.84,3.73,2.96ZM208.79,194.53c0-1.41-.77-2.32-2.25-2.32-2.51,0-3.22,2.25-3.22,4.31,0,1.35.26,2.57.9,3.79,2.25-1.09,4.57-3.09,4.57-5.79Z"/>
      <path class="st0" d="M222.82,188.03l-.77,2.38c2.38,1.61,5.98,4.63,5.98,7.85,0,2.25-1.74,4.7-3.8,5.4v.13c5.85-.13,10.04-1.99,12.93-8.49.19-.45.39-.77.58-.77.13,0,.19.06.19.26,0,.77-2.51,5.47-5.34,7.33-3.22,2.12-6.3,2.19-8.3,2.19-1.03,0-2.06.13-3.09.13-1.67,0-3.41-.84-4.7-1.93.13-1.35,1.09-2.57,2.25-3.28l.26.19c.32,2.32,1.22,3.99,3.79,3.99,1.87,0,3.41-1.35,3.41-3.22,0-2.32-3.67-5.4-5.47-6.62-.96,1.93-2.06,3.8-3.41,5.53-1.54,1.99-2.9,3.09-3.15,3.09-.13,0-.13-.13-.13-.19,0-.26,1.03-1.09,1.48-1.54,3.15-3.15,5.4-8.36,6.82-12.54l.45.13Z"/>
      <path class="st0" d="M241.28,185.97l2.25-.9c.9-.39,1.48-.58,1.8-.58.13,0,.26.06.26.26s-.26.32-1.67.9l-2.64,1.09v14.02c0,1.67.32,2.38,2.06,2.38,3.41,0,7.14-5.4,8.49-8.1.19-.39.39-.71.58-.71.13,0,.19.13.19.38,0,.13-.51,1.48-3.6,5.53-1.61,2.06-4.44,4.18-7.78,4.18-2.83,0-3.28-.9-3.28-5.28v-10.87l-2,.71c-.32.13-1.16.51-1.42.51s-.32-.06-.32-.19c0-.39,1.03-.77,1.99-1.16l1.74-.71,3.34-1.48Z"/>
    </g>
  </g>
  <g id="_x33__x2F_solid">
    <path class="st0" d="M4.32,116.74h12.55V51.36H4.32v-2.28h26.25v17.45h.33c2.61-5.71,9.29-19.24,28.04-19.24,14.35,0,24.29,6.68,24.29,21.85v47.61h12.55v2.28h-39.13v-2.28h12.55v-52.66c0-8.48-3.91-14.51-12.39-14.51-14.02,0-25.92,13.04-25.92,30.33v36.85h12.55v2.28H4.32v-2.28Z"/>
    <path class="st0" d="M114.53,47.28c4.73,0,8.64,3.91,8.64,8.64s-3.91,8.64-8.64,8.64-8.64-3.91-8.64-8.64,3.91-8.64,8.64-8.64ZM114.53,103.53c4.73,0,8.64,3.91,8.64,8.64s-3.91,8.64-8.64,8.64-8.64-3.91-8.64-8.64,3.91-8.64,8.64-8.64Z"/>
    <path class="st0" d="M224.71,138.75c-4.4-5.05-9.95-9.46-16.3-10.11-11.58-1.14-16.47-3.75-22.83-7.17l.16-.49c2.12.33,4.08.49,6.2.49,31.79,0,56.74-30.16,56.74-60.65,0-34.73-28.04-60.81-56.74-60.81s-56.74,27.06-56.74,60.81c0,26.58,16.95,51.68,41.74,58.37,4.56,1.3,10.43,5.54,15.16,11.74,10.92,14.67,14.19,18.42,52.01,19.08v-2.28c-11.41,0-13.53-2.28-19.4-8.97ZM153.95,60.81c0-30,6.2-58.53,37.99-58.53s37.99,28.53,37.99,58.53c0,39.13-9.95,58.37-37.99,58.37s-37.99-19.24-37.99-58.37ZM223.94,144.42c-.88-.3-1.79-.52-2.7-.75-2.83-.72-6.09-1.12-8.76-2.3-3.63-1.61-6.94-3.87-10.16-6.15-2.49-1.76-4.53-4-6.82-6,1.15,1,2.8,1.71,4.1,2.5,1.32.8,2.65,1.6,3.97,2.4,3.69,2.22,7.41,4.41,11.31,6.25,3.71,1.75,7.55,3.27,11.28,4.98-.73-.33-1.46-.66-2.22-.92Z"/>
  </g>
</svg>